<svg  width="19" height="20" viewBox="0 0 19 20" fill="black" xmlns="http://www.w3.org/2000/svg">
<path d="M7.91663 11.2667L12.5875 6.59588C12.7326 6.45074 12.9173 6.37817 13.1416 6.37817C13.3659 6.37817 13.5507 6.45074 13.6958 6.59588C13.8409 6.74102 13.9135 6.92574 13.9135 7.15005C13.9135 7.37435 13.8409 7.55908 13.6958 7.70422L8.4708 12.9292C8.31247 13.0875 8.12774 13.1667 7.91663 13.1667C7.70552 13.1667 7.5208 13.0875 7.36247 12.9292L5.30413 10.8709C5.15899 10.7257 5.08643 10.541 5.08643 10.3167C5.08643 10.0924 5.15899 9.90769 5.30413 9.76255C5.44927 9.61741 5.634 9.54484 5.8583 9.54484C6.08261 9.54484 6.26733 9.61741 6.41247 9.76255L7.91663 11.2667Z" fill="white"/>
</svg>
